<mxfile host="app.diagrams.net" agent="Mozilla/5.0 (Windows NT 10.0; Win64; x64) AppleWebKit/537.36 (KHTML, like Gecko) Chrome/137.0.0.0 Safari/537.36" version="27.0.5">
  <diagram name="UML Diagrams" id="rPBJdNBvr-hr46JmPUd0">
    <mxGraphModel dx="3227" dy="1335" grid="1" gridSize="10" guides="1" tooltips="1" connect="1" arrows="1" fold="1" page="1" pageScale="1" pageWidth="850" pageHeight="1100" math="0" shadow="0">
      <root>
        <mxCell id="0" />
        <mxCell id="1" parent="0" />
        <mxCell id="JUKcHp1M4puxRMfZt_od-35" value="Start" style="shape=rectangle;whiteSpace=wrap;html=1;" vertex="1" parent="1">
          <mxGeometry x="40" y="10" width="160" height="60" as="geometry" />
        </mxCell>
        <mxCell id="JUKcHp1M4puxRMfZt_od-57" style="edgeStyle=orthogonalEdgeStyle;rounded=0;orthogonalLoop=1;jettySize=auto;html=1;exitX=0.5;exitY=1;exitDx=0;exitDy=0;entryX=0.5;entryY=0;entryDx=0;entryDy=0;" edge="1" parent="1" source="JUKcHp1M4puxRMfZt_od-36" target="JUKcHp1M4puxRMfZt_od-37">
          <mxGeometry relative="1" as="geometry" />
        </mxCell>
        <mxCell id="JUKcHp1M4puxRMfZt_od-36" value="SpawnNewBlock()" style="shape=rectangle;whiteSpace=wrap;html=1;" vertex="1" parent="1">
          <mxGeometry x="40" y="120" width="160" height="60" as="geometry" />
        </mxCell>
        <mxCell id="JUKcHp1M4puxRMfZt_od-37" value="If spawnpositie bezet?" style="shape=rhombus;whiteSpace=wrap;html=1;" vertex="1" parent="1">
          <mxGeometry x="40" y="200" width="160" height="60" as="geometry" />
        </mxCell>
        <mxCell id="JUKcHp1M4puxRMfZt_od-38" value="Game Over" style="shape=rectangle;whiteSpace=wrap;html=1;" vertex="1" parent="1">
          <mxGeometry x="-100" y="280" width="160" height="60" as="geometry" />
        </mxCell>
        <mxCell id="JUKcHp1M4puxRMfZt_od-39" value="Begin blok laten vallen" style="shape=rectangle;whiteSpace=wrap;html=1;" vertex="1" parent="1">
          <mxGeometry x="180" y="280" width="160" height="60" as="geometry" />
        </mxCell>
        <mxCell id="JUKcHp1M4puxRMfZt_od-62" style="rounded=0;orthogonalLoop=1;jettySize=auto;html=1;exitX=0.796;exitY=0.705;exitDx=0;exitDy=0;entryX=0.5;entryY=0;entryDx=0;entryDy=0;exitPerimeter=0;" edge="1" parent="1" source="JUKcHp1M4puxRMfZt_od-40" target="JUKcHp1M4puxRMfZt_od-61">
          <mxGeometry relative="1" as="geometry" />
        </mxCell>
        <mxCell id="JUKcHp1M4puxRMfZt_od-40" value="If geraakt bodem of blok?" style="shape=rhombus;whiteSpace=wrap;html=1;" vertex="1" parent="1">
          <mxGeometry x="180" y="360" width="160" height="60" as="geometry" />
        </mxCell>
        <mxCell id="JUKcHp1M4puxRMfZt_od-41" value="Voeg kleur toe aan grid" style="shape=rectangle;whiteSpace=wrap;html=1;" vertex="1" parent="1">
          <mxGeometry x="180" y="440" width="160" height="60" as="geometry" />
        </mxCell>
        <mxCell id="JUKcHp1M4puxRMfZt_od-42" value="Mix kleuren" style="shape=rectangle;whiteSpace=wrap;html=1;" vertex="1" parent="1">
          <mxGeometry x="180" y="520" width="160" height="60" as="geometry" />
        </mxCell>
        <mxCell id="JUKcHp1M4puxRMfZt_od-43" value="If kleur is wit?" style="shape=rhombus;whiteSpace=wrap;html=1;" vertex="1" parent="1">
          <mxGeometry x="180" y="600" width="160" height="60" as="geometry" />
        </mxCell>
        <mxCell id="JUKcHp1M4puxRMfZt_od-44" value="Verwijder blok" style="shape=rectangle;whiteSpace=wrap;html=1;" vertex="1" parent="1">
          <mxGeometry x="320" y="680" width="160" height="60" as="geometry" />
        </mxCell>
        <mxCell id="JUKcHp1M4puxRMfZt_od-45" value="SpawnNewBlock()" style="shape=rectangle;whiteSpace=wrap;html=1;" vertex="1" parent="1">
          <mxGeometry x="30" y="690" width="160" height="60" as="geometry" />
        </mxCell>
        <mxCell id="JUKcHp1M4puxRMfZt_od-46" style="endArrow=block;entryX=0.5;entryY=0;entryDx=0;entryDy=0;" edge="1" parent="1" source="JUKcHp1M4puxRMfZt_od-35" target="JUKcHp1M4puxRMfZt_od-36">
          <mxGeometry relative="1" as="geometry" />
        </mxCell>
        <mxCell id="JUKcHp1M4puxRMfZt_od-47" style="endArrow=block;" edge="1" parent="1" source="JUKcHp1M4puxRMfZt_od-45" target="JUKcHp1M4puxRMfZt_od-37">
          <mxGeometry relative="1" as="geometry" />
        </mxCell>
        <mxCell id="JUKcHp1M4puxRMfZt_od-48" style="endArrow=block;exitX=0.251;exitY=0.752;exitDx=0;exitDy=0;exitPerimeter=0;" edge="1" parent="1" source="JUKcHp1M4puxRMfZt_od-37" target="JUKcHp1M4puxRMfZt_od-38">
          <mxGeometry relative="1" as="geometry" />
        </mxCell>
        <mxCell id="JUKcHp1M4puxRMfZt_od-49" style="endArrow=block;exitX=0.747;exitY=0.76;exitDx=0;exitDy=0;exitPerimeter=0;" edge="1" parent="1" source="JUKcHp1M4puxRMfZt_od-37" target="JUKcHp1M4puxRMfZt_od-39">
          <mxGeometry relative="1" as="geometry" />
        </mxCell>
        <mxCell id="JUKcHp1M4puxRMfZt_od-50" style="endArrow=block;" edge="1" parent="1" source="JUKcHp1M4puxRMfZt_od-39" target="JUKcHp1M4puxRMfZt_od-40">
          <mxGeometry relative="1" as="geometry" />
        </mxCell>
        <mxCell id="JUKcHp1M4puxRMfZt_od-51" style="endArrow=block;" edge="1" parent="1" source="JUKcHp1M4puxRMfZt_od-40" target="JUKcHp1M4puxRMfZt_od-41">
          <mxGeometry relative="1" as="geometry" />
        </mxCell>
        <mxCell id="JUKcHp1M4puxRMfZt_od-52" style="endArrow=block;" edge="1" parent="1" source="JUKcHp1M4puxRMfZt_od-41" target="JUKcHp1M4puxRMfZt_od-42">
          <mxGeometry relative="1" as="geometry" />
        </mxCell>
        <mxCell id="JUKcHp1M4puxRMfZt_od-53" style="endArrow=block;" edge="1" parent="1" source="JUKcHp1M4puxRMfZt_od-42" target="JUKcHp1M4puxRMfZt_od-43">
          <mxGeometry relative="1" as="geometry" />
        </mxCell>
        <mxCell id="JUKcHp1M4puxRMfZt_od-54" style="endArrow=block;exitX=0.738;exitY=0.769;exitDx=0;exitDy=0;exitPerimeter=0;" edge="1" parent="1" source="JUKcHp1M4puxRMfZt_od-43" target="JUKcHp1M4puxRMfZt_od-44">
          <mxGeometry relative="1" as="geometry" />
        </mxCell>
        <mxCell id="JUKcHp1M4puxRMfZt_od-55" style="endArrow=block;exitX=0.214;exitY=0.733;exitDx=0;exitDy=0;exitPerimeter=0;" edge="1" parent="1" source="JUKcHp1M4puxRMfZt_od-43" target="JUKcHp1M4puxRMfZt_od-45">
          <mxGeometry relative="1" as="geometry">
            <mxPoint x="210" y="660" as="sourcePoint" />
          </mxGeometry>
        </mxCell>
        <mxCell id="JUKcHp1M4puxRMfZt_od-56" style="endArrow=block;" edge="1" parent="1" source="JUKcHp1M4puxRMfZt_od-44" target="JUKcHp1M4puxRMfZt_od-45">
          <mxGeometry relative="1" as="geometry" />
        </mxCell>
        <mxCell id="JUKcHp1M4puxRMfZt_od-58" value="Ja" style="text;strokeColor=none;fillColor=none;align=center;verticalAlign=top;spacingLeft=4;spacingRight=4;overflow=hidden;rotatable=0;points=[[0,0.5],[1,0.5]];portConstraint=eastwest;whiteSpace=wrap;html=1;" vertex="1" parent="1">
          <mxGeometry y="240" width="100" height="26" as="geometry" />
        </mxCell>
        <mxCell id="JUKcHp1M4puxRMfZt_od-60" value="Nee" style="text;strokeColor=none;fillColor=none;align=center;verticalAlign=top;spacingLeft=4;spacingRight=4;overflow=hidden;rotatable=0;points=[[0,0.5],[1,0.5]];portConstraint=eastwest;whiteSpace=wrap;html=1;" vertex="1" parent="1">
          <mxGeometry x="140" y="240" width="100" height="26" as="geometry" />
        </mxCell>
        <mxCell id="JUKcHp1M4puxRMfZt_od-61" value="blijf vallen" style="shape=rectangle;whiteSpace=wrap;html=1;" vertex="1" parent="1">
          <mxGeometry x="370" y="440" width="160" height="60" as="geometry" />
        </mxCell>
        <mxCell id="JUKcHp1M4puxRMfZt_od-63" value="Nee" style="text;strokeColor=none;fillColor=none;align=center;verticalAlign=top;spacingLeft=4;spacingRight=4;overflow=hidden;rotatable=0;points=[[0,0.5],[1,0.5]];portConstraint=eastwest;whiteSpace=wrap;html=1;" vertex="1" parent="1">
          <mxGeometry x="320" y="394" width="100" height="26" as="geometry" />
        </mxCell>
        <mxCell id="JUKcHp1M4puxRMfZt_od-64" value="Ja" style="text;strokeColor=none;fillColor=none;align=center;verticalAlign=top;spacingLeft=4;spacingRight=4;overflow=hidden;rotatable=0;points=[[0,0.5],[1,0.5]];portConstraint=eastwest;whiteSpace=wrap;html=1;" vertex="1" parent="1">
          <mxGeometry x="220" y="414" width="100" height="26" as="geometry" />
        </mxCell>
        <mxCell id="JUKcHp1M4puxRMfZt_od-65" value="Ja" style="text;strokeColor=none;fillColor=none;align=center;verticalAlign=top;spacingLeft=4;spacingRight=4;overflow=hidden;rotatable=0;points=[[0,0.5],[1,0.5]];portConstraint=eastwest;whiteSpace=wrap;html=1;" vertex="1" parent="1">
          <mxGeometry x="290" y="640" width="100" height="26" as="geometry" />
        </mxCell>
        <mxCell id="JUKcHp1M4puxRMfZt_od-66" value="Nee" style="text;strokeColor=none;fillColor=none;align=center;verticalAlign=top;spacingLeft=4;spacingRight=4;overflow=hidden;rotatable=0;points=[[0,0.5],[1,0.5]];portConstraint=eastwest;whiteSpace=wrap;html=1;" vertex="1" parent="1">
          <mxGeometry x="120" y="640" width="100" height="26" as="geometry" />
        </mxCell>
        <mxCell id="JUKcHp1M4puxRMfZt_od-70" style="edgeStyle=orthogonalEdgeStyle;rounded=0;orthogonalLoop=1;jettySize=auto;html=1;exitX=0.5;exitY=1;exitDx=0;exitDy=0;entryX=0.5;entryY=0;entryDx=0;entryDy=0;" edge="1" parent="1" source="JUKcHp1M4puxRMfZt_od-68" target="JUKcHp1M4puxRMfZt_od-69">
          <mxGeometry relative="1" as="geometry" />
        </mxCell>
        <mxCell id="JUKcHp1M4puxRMfZt_od-68" value="Start Update()" style="shape=rectangle;whiteSpace=wrap;html=1;" vertex="1" parent="1">
          <mxGeometry x="-520" y="20" width="160" height="60" as="geometry" />
        </mxCell>
        <mxCell id="JUKcHp1M4puxRMfZt_od-73" style="edgeStyle=orthogonalEdgeStyle;rounded=0;orthogonalLoop=1;jettySize=auto;html=1;exitX=1;exitY=0.5;exitDx=0;exitDy=0;" edge="1" parent="1" source="JUKcHp1M4puxRMfZt_od-69" target="JUKcHp1M4puxRMfZt_od-71">
          <mxGeometry relative="1" as="geometry" />
        </mxCell>
        <mxCell id="JUKcHp1M4puxRMfZt_od-75" style="edgeStyle=orthogonalEdgeStyle;rounded=0;orthogonalLoop=1;jettySize=auto;html=1;exitX=0;exitY=0.5;exitDx=0;exitDy=0;" edge="1" parent="1" source="JUKcHp1M4puxRMfZt_od-69" target="JUKcHp1M4puxRMfZt_od-74">
          <mxGeometry relative="1" as="geometry" />
        </mxCell>
        <mxCell id="JUKcHp1M4puxRMfZt_od-69" value="Game over check" style="shape=rhombus;whiteSpace=wrap;html=1;" vertex="1" parent="1">
          <mxGeometry x="-520" y="140" width="160" height="60" as="geometry" />
        </mxCell>
        <mxCell id="JUKcHp1M4puxRMfZt_od-71" value="Return" style="shape=rectangle;whiteSpace=wrap;html=1;" vertex="1" parent="1">
          <mxGeometry x="-390" y="250" width="160" height="60" as="geometry" />
        </mxCell>
        <mxCell id="JUKcHp1M4puxRMfZt_od-80" style="edgeStyle=orthogonalEdgeStyle;rounded=0;orthogonalLoop=1;jettySize=auto;html=1;exitX=0.5;exitY=1;exitDx=0;exitDy=0;" edge="1" parent="1" source="JUKcHp1M4puxRMfZt_od-74" target="JUKcHp1M4puxRMfZt_od-79">
          <mxGeometry relative="1" as="geometry" />
        </mxCell>
        <mxCell id="JUKcHp1M4puxRMfZt_od-74" value="HandleInput()" style="shape=rectangle;whiteSpace=wrap;html=1;" vertex="1" parent="1">
          <mxGeometry x="-650" y="250" width="160" height="60" as="geometry" />
        </mxCell>
        <mxCell id="JUKcHp1M4puxRMfZt_od-76" value="Ja" style="text;strokeColor=none;fillColor=none;align=center;verticalAlign=top;spacingLeft=4;spacingRight=4;overflow=hidden;rotatable=0;points=[[0,0.5],[1,0.5]];portConstraint=eastwest;whiteSpace=wrap;html=1;" vertex="1" parent="1">
          <mxGeometry x="-340" y="190" width="100" height="26" as="geometry" />
        </mxCell>
        <mxCell id="JUKcHp1M4puxRMfZt_od-78" value="Nee" style="text;strokeColor=none;fillColor=none;align=center;verticalAlign=top;spacingLeft=4;spacingRight=4;overflow=hidden;rotatable=0;points=[[0,0.5],[1,0.5]];portConstraint=eastwest;whiteSpace=wrap;html=1;" vertex="1" parent="1">
          <mxGeometry x="-600" y="200" width="100" height="26" as="geometry" />
        </mxCell>
        <mxCell id="JUKcHp1M4puxRMfZt_od-82" style="edgeStyle=orthogonalEdgeStyle;rounded=0;orthogonalLoop=1;jettySize=auto;html=1;exitX=0.5;exitY=1;exitDx=0;exitDy=0;entryX=0.5;entryY=0;entryDx=0;entryDy=0;" edge="1" parent="1" source="JUKcHp1M4puxRMfZt_od-79" target="JUKcHp1M4puxRMfZt_od-81">
          <mxGeometry relative="1" as="geometry" />
        </mxCell>
        <mxCell id="JUKcHp1M4puxRMfZt_od-79" value="HandleFalling()" style="shape=rectangle;whiteSpace=wrap;html=1;" vertex="1" parent="1">
          <mxGeometry x="-650" y="354" width="160" height="60" as="geometry" />
        </mxCell>
        <mxCell id="JUKcHp1M4puxRMfZt_od-84" style="edgeStyle=orthogonalEdgeStyle;rounded=0;orthogonalLoop=1;jettySize=auto;html=1;exitX=0.5;exitY=1;exitDx=0;exitDy=0;" edge="1" parent="1" source="JUKcHp1M4puxRMfZt_od-81" target="JUKcHp1M4puxRMfZt_od-83">
          <mxGeometry relative="1" as="geometry" />
        </mxCell>
        <mxCell id="JUKcHp1M4puxRMfZt_od-81" value="DrawGrid() via OnGui()" style="shape=rectangle;whiteSpace=wrap;html=1;" vertex="1" parent="1">
          <mxGeometry x="-650" y="450" width="160" height="60" as="geometry" />
        </mxCell>
        <mxCell id="JUKcHp1M4puxRMfZt_od-83" value="End Update()" style="shape=rectangle;whiteSpace=wrap;html=1;" vertex="1" parent="1">
          <mxGeometry x="-650" y="540" width="160" height="60" as="geometry" />
        </mxCell>
        <mxCell id="JUKcHp1M4puxRMfZt_od-86" value="Gameplay per fram" style="shape=umlFrame;whiteSpace=wrap;html=1;pointerEvents=0;" vertex="1" parent="1">
          <mxGeometry x="-730" width="540" height="700" as="geometry" />
        </mxCell>
        <mxCell id="JUKcHp1M4puxRMfZt_od-87" value="Game flow" style="shape=umlFrame;whiteSpace=wrap;html=1;pointerEvents=0;" vertex="1" parent="1">
          <mxGeometry x="-110" width="670" height="790" as="geometry" />
        </mxCell>
        <mxCell id="JUKcHp1M4puxRMfZt_od-88" value="&lt;span style=&quot;font-weight: 400;&quot;&gt;ColorCascadeGame&lt;/span&gt;" style="swimlane;fontStyle=1;align=center;verticalAlign=top;childLayout=stackLayout;horizontal=1;startSize=26;horizontalStack=0;resizeParent=1;resizeParentMax=0;resizeLast=0;collapsible=1;marginBottom=0;whiteSpace=wrap;html=1;" vertex="1" parent="1">
          <mxGeometry x="630" y="50" width="160" height="380" as="geometry" />
        </mxCell>
        <mxCell id="JUKcHp1M4puxRMfZt_od-89" value="&lt;span style=&quot;text-align: center;&quot;&gt;- fieldWidth: int&amp;nbsp;&lt;/span&gt;&lt;div style=&quot;&quot;&gt;- fieldHeight: int&lt;/div&gt;&lt;div style=&quot;&quot;&gt;&lt;span style=&quot;background-color: transparent; color: light-dark(rgb(0, 0, 0), rgb(255, 255, 255));&quot;&gt;- grid: int[,]&lt;/span&gt;&lt;/div&gt;&lt;div style=&quot;&quot;&gt;&lt;span style=&quot;background-color: transparent; color: light-dark(rgb(0, 0, 0), rgb(255, 255, 255));&quot;&gt;&lt;div&gt;- activeX: int&amp;nbsp; &amp;nbsp; &amp;nbsp; &amp;nbsp; &amp;nbsp;&amp;nbsp;&lt;/div&gt;&lt;div&gt;- activeY: int&amp;nbsp; &amp;nbsp; &amp;nbsp; &amp;nbsp; &amp;nbsp;&amp;nbsp;&lt;/div&gt;&lt;div&gt;- activeColor: int&amp;nbsp;&lt;/div&gt;&lt;div&gt;- fallTimer: float&amp;nbsp;&lt;/div&gt;&lt;div&gt;- fallInterval: float&amp;nbsp;&amp;nbsp;&lt;/div&gt;&lt;div&gt;&lt;span style=&quot;background-color: transparent; color: light-dark(rgb(0, 0, 0), rgb(255, 255, 255));&quot;&gt;- gameOver: bool&amp;nbsp;&lt;/span&gt;&lt;/div&gt;&lt;div&gt;- colorTexture: Texture2D&lt;/div&gt;&lt;/span&gt;&lt;/div&gt;" style="text;strokeColor=none;fillColor=none;align=left;verticalAlign=top;spacingLeft=4;spacingRight=4;overflow=hidden;rotatable=0;points=[[0,0.5],[1,0.5]];portConstraint=eastwest;whiteSpace=wrap;html=1;" vertex="1" parent="JUKcHp1M4puxRMfZt_od-88">
          <mxGeometry y="26" width="160" height="164" as="geometry" />
        </mxCell>
        <mxCell id="JUKcHp1M4puxRMfZt_od-90" value="" style="line;strokeWidth=1;fillColor=none;align=left;verticalAlign=middle;spacingTop=-1;spacingLeft=3;spacingRight=3;rotatable=0;labelPosition=right;points=[];portConstraint=eastwest;strokeColor=inherit;" vertex="1" parent="JUKcHp1M4puxRMfZt_od-88">
          <mxGeometry y="190" width="160" height="10" as="geometry" />
        </mxCell>
        <mxCell id="JUKcHp1M4puxRMfZt_od-91" value="&lt;div&gt;+ Start()&amp;nbsp; &amp;nbsp; &amp;nbsp; &amp;nbsp; &amp;nbsp; &amp;nbsp; &amp;nbsp; &amp;nbsp;&lt;/div&gt;&lt;div&gt;+ Update()&amp;nbsp; &amp;nbsp; &amp;nbsp; &amp;nbsp; &amp;nbsp; &amp;nbsp; &amp;nbsp;&amp;nbsp;&lt;/div&gt;&lt;div&gt;+ OnGUI()&amp;nbsp; &amp;nbsp; &amp;nbsp; &amp;nbsp; &amp;nbsp; &amp;nbsp; &amp;nbsp; &amp;nbsp;&lt;/div&gt;&lt;div&gt;+ HandleInput()&amp;nbsp; &amp;nbsp; &amp;nbsp; &amp;nbsp; &amp;nbsp;&lt;/div&gt;&lt;div&gt;+ HandleFalling()&amp;nbsp; &amp;nbsp; &amp;nbsp; &amp;nbsp;&lt;/div&gt;&lt;div&gt;+ DrawGrid()&amp;nbsp; &amp;nbsp; &amp;nbsp; &amp;nbsp; &amp;nbsp; &amp;nbsp;&amp;nbsp;&lt;/div&gt;&lt;div&gt;+ DrawBlock(x,y,color)&amp;nbsp;&amp;nbsp;&lt;/div&gt;&lt;div&gt;+ SpawnNewBlock()&amp;nbsp; &amp;nbsp; &amp;nbsp; &amp;nbsp;&lt;/div&gt;&lt;div&gt;+ IsPositionValid(x,y)&amp;nbsp;&amp;nbsp;&lt;/div&gt;&lt;div&gt;+GetRandomPrimaryColor()&lt;/div&gt;&lt;div&gt;+ MixColors(a,b): int&amp;nbsp; &amp;nbsp;&lt;/div&gt;&lt;div&gt;+ IsWhite(color): bool&amp;nbsp;&amp;nbsp;&lt;/div&gt;" style="text;strokeColor=none;fillColor=none;align=left;verticalAlign=top;spacingLeft=4;spacingRight=4;overflow=hidden;rotatable=0;points=[[0,0.5],[1,0.5]];portConstraint=eastwest;whiteSpace=wrap;html=1;" vertex="1" parent="JUKcHp1M4puxRMfZt_od-88">
          <mxGeometry y="200" width="160" height="180" as="geometry" />
        </mxCell>
        <mxCell id="JUKcHp1M4puxRMfZt_od-93" value="class diagram" style="shape=umlFrame;whiteSpace=wrap;html=1;pointerEvents=0;" vertex="1" parent="1">
          <mxGeometry x="580" y="12" width="270" height="518" as="geometry" />
        </mxCell>
      </root>
    </mxGraphModel>
  </diagram>
</mxfile>
